<svg width="50" height="50" viewBox="0 0 50 50" fill="none" xmlns="http://www.w3.org/2000/svg">
<rect width="50" height="50" rx="10" fill="black"/>
<path d="M15.625 13.0859C14.2236 13.2373 13.0225 14.2627 12.627 15.6396C12.5428 15.9246 12.5 16.2202 12.5 16.5174V22.9932C12.5 29.7168 12.5049 29.9219 12.5977 30.2881C12.8613 31.3232 13.667 32.2559 14.6533 32.6709C15.1953 32.8955 15.6104 32.9541 16.7236 32.9541C17.2752 32.9541 17.7237 33.3986 17.7286 33.9502L17.7344 34.6045L17.7458 35.8853C17.7479 36.1254 17.8041 36.3618 17.9102 36.5771C18.2031 37.1729 18.7256 37.5 19.3945 37.5C19.5801 37.5 19.8096 37.4756 19.9121 37.4414C20.0098 37.4121 21.8213 36.3867 23.9307 35.1709L25.4474 34.2948C26.968 33.4165 28.6931 32.9541 30.4491 32.9541H31.0205C34.5752 32.9541 34.6875 32.9443 35.3467 32.6709C36.333 32.2559 37.1387 31.3232 37.4023 30.2881C37.4951 29.9219 37.5 29.7168 37.5 23.0176C37.5 16.3184 37.4951 16.1133 37.4023 15.7471C37.0264 14.2725 35.8252 13.2422 34.3018 13.0811C33.7598 13.0225 16.1523 13.0273 15.625 13.0859ZM34.2236 14.6924C35.0977 14.8389 35.7764 15.542 35.8936 16.4404C35.9521 16.8994 35.9473 29.126 35.8887 29.585C35.7959 30.2832 35.4102 30.8203 34.7754 31.1328C34.5312 31.2549 34.2624 31.3193 33.9894 31.3212L30.8398 31.3428L27.7496 31.3639C27.4356 31.3661 27.1275 31.4496 26.8555 31.6064C26.626 31.7383 24.8828 32.749 22.9736 33.8477C21.0693 34.9512 19.4678 35.8594 19.4238 35.874C19.3408 35.8936 19.3359 35.7764 19.3359 33.9355C19.3359 31.7529 19.3359 31.7529 19.0137 31.5088C18.8965 31.4169 18.7524 31.366 18.6035 31.3637L17.2119 31.3428L16.0106 31.3246C15.7375 31.3205 15.4689 31.2549 15.2246 31.1328C14.5898 30.8203 14.2041 30.2832 14.1113 29.585C14.0527 29.126 14.0479 16.8994 14.1064 16.4404C14.2236 15.5615 14.9072 14.8389 15.7568 14.6924C16.1182 14.6338 33.8477 14.6338 34.2236 14.6924Z" fill="white"/>
<path d="M18.1396 19.3897C17.8076 19.5069 17.627 19.7852 17.627 20.1709C17.627 20.3662 17.6562 20.4737 17.7441 20.6055C17.9932 20.9668 17.4268 20.9424 25 20.9424C32.5732 20.9424 32.0068 20.9668 32.2559 20.6055C32.3438 20.4737 32.373 20.3662 32.373 20.1709C32.373 19.7754 32.1875 19.502 31.8408 19.3848C31.6162 19.3115 18.3545 19.3164 18.1396 19.3897Z" fill="white"/>
<path d="M18.1445 25.0928C17.832 25.1904 17.627 25.4981 17.627 25.8789C17.627 26.1963 17.7637 26.4258 18.0225 26.5576C18.2031 26.6553 18.3398 26.6553 25.0049 26.6553C32.5732 26.6553 32.0068 26.6797 32.2559 26.3184C32.3438 26.1865 32.373 26.0791 32.373 25.8692C32.373 25.5664 32.2656 25.3565 32.0166 25.1709C31.9278 25.1044 31.8199 25.0683 31.709 25.0681L25.083 25.0586C21.3428 25.0537 18.2227 25.0684 18.1445 25.0928Z" fill="white"/>
</svg>
