<svg width="25" height="25" viewBox="0 0 25 25" fill="none" xmlns="http://www.w3.org/2000/svg">
<path d="M5.46878 0.0307522C4.69242 0.14794 3.81351 0.450674 3.1641 0.821768C1.83597 1.58349 0.791049 2.8579 0.302768 4.31786C-0.00973184 5.26024 3.37911e-05 4.98192 3.37911e-05 12.4966C3.37911e-05 20.0112 -0.00973184 19.7329 0.302768 20.6753C0.996128 22.7505 2.66605 24.2739 4.88285 24.8599L5.29789 24.9722L12.2803 24.9868C20 25.0015 19.7266 25.0112 20.6787 24.6938C22.7442 24.0005 24.2969 22.311 24.8438 20.1626L24.9756 19.6499V12.4966V5.34325L24.8584 4.87938C24.7071 4.27392 24.5557 3.87841 24.2871 3.36571C23.5254 1.93017 22.2119 0.812002 20.6787 0.299307C19.7364 -0.0131931 20.0244 -0.00342751 12.4561 0.00145531C8.68167 0.00633812 5.53714 0.0161037 5.46878 0.0307522ZM19.7998 1.8911C21.4356 2.35009 22.6758 3.60009 23.1055 5.22118L23.2178 5.63622V12.4966V19.3569L23.1055 19.772C22.9883 20.2261 22.7002 20.8608 22.4561 21.227C22.2266 21.5591 21.6553 22.1401 21.3086 22.3891C20.9082 22.6772 20.2735 22.9702 19.7754 23.102L19.3604 23.2143H12.5H5.63968L5.22464 23.102C3.59378 22.6675 2.32425 21.4028 1.89457 19.772L1.78226 19.3569V12.4966V5.63622L1.89457 5.22118C2.35355 3.48778 3.74027 2.18407 5.49808 1.82763C5.7764 1.77392 7.03617 1.76415 12.6221 1.76903L19.4092 1.7788L19.7998 1.8911Z" fill="white"/>
<path d="M18.8721 3.20954C17.2315 3.77595 16.7481 5.81696 17.9639 7.03278C19.0528 8.12165 20.9034 7.8531 21.6211 6.50544C21.8213 6.1197 21.8799 5.87556 21.8799 5.40192C21.8799 4.35212 21.2452 3.48298 20.2686 3.19978C19.9073 3.09235 19.1895 3.09724 18.8721 3.20954ZM19.9512 5.04548C20.0733 5.16755 20.1172 5.25544 20.1172 5.37263C20.1172 5.62165 19.961 5.84138 19.7315 5.90974C19.5655 5.95856 19.5166 5.95368 19.3799 5.87556C19.292 5.82185 19.1748 5.70466 19.1211 5.61677C19.043 5.48005 19.0381 5.43122 19.0869 5.2652C19.1553 5.03571 19.375 4.87946 19.6241 4.87946C19.7412 4.87946 19.8291 4.92341 19.9512 5.04548Z" fill="white"/>
<path d="M11.4746 6.21723C10.8985 6.31976 10.5078 6.43695 10.0586 6.62738C9.20413 6.98871 8.62308 7.38422 7.98343 8.02875C7.10452 8.91254 6.53323 9.97699 6.26468 11.227C6.2012 11.5395 6.17679 11.8569 6.17679 12.4965C6.17679 13.1362 6.2012 13.4536 6.26468 13.7661C6.53323 15.0161 7.10452 16.0756 7.98343 16.9692C8.86234 17.853 9.94632 18.4438 11.2061 18.727C11.7334 18.8442 12.9151 18.8686 13.4864 18.7758C16.2256 18.3266 18.3301 16.2221 18.7793 13.4829C18.8721 12.9067 18.8477 11.7348 18.7256 11.1782C18.4522 9.94281 17.8809 8.89301 16.9922 8.00433C16.1084 7.12055 15.0537 6.54437 13.8184 6.27094C13.3203 6.15863 11.9629 6.12933 11.4746 6.21723ZM13.5791 8.04828C15.2784 8.48773 16.5528 9.7768 16.9776 11.5004C17.0899 11.9594 17.0899 13.0336 16.9776 13.4926C16.7627 14.3666 16.3526 15.0942 15.7227 15.7192C14.8194 16.6274 13.7891 17.0571 12.5 17.0571C11.2256 17.0571 10.1953 16.6323 9.29691 15.7436C7.78323 14.2495 7.49026 11.9692 8.57425 10.143C8.89651 9.60101 9.60452 8.89301 10.1465 8.57074C10.5957 8.30707 11.3379 8.03363 11.8164 7.96039C12.2705 7.89203 13.1397 7.93598 13.5791 8.04828Z" fill="white"/>
</svg>
