<svg width="25" height="28" viewBox="0 0 25 28" fill="none" xmlns="http://www.w3.org/2000/svg">
<path d="M12.0747 9.69667C12.0747 18.1063 12.0638 19.4315 11.9929 19.7042C11.7257 20.7404 10.8804 21.5912 9.82237 21.8966C9.41334 22.0166 8.67709 22.0111 8.26807 21.8966C6.35382 21.3403 5.44305 19.2188 6.38654 17.5064C6.94282 16.5029 8.17535 15.8321 9.27155 15.9466C9.46243 15.9684 9.93144 16.0775 10.3132 16.1975C10.695 16.3175 11.0276 16.4156 11.0495 16.4156C11.0767 16.4156 11.0931 15.0195 11.0931 13.3125C11.0931 10.4002 11.0876 10.2039 11.0004 10.1766C10.4277 10.013 8.46985 9.95845 7.68452 10.0839C3.83421 10.6947 0.938302 13.427 0.125702 17.2337C0.0166276 17.7191 0.000266543 17.9754 0.000266543 18.9243C-0.00518715 20.2114 0.0711646 20.7404 0.40384 21.7602C1.27098 24.4162 3.43609 26.5813 6.11931 27.4812C7.16097 27.8302 7.60272 27.8902 9.02068 27.8902C10.155 27.8957 10.3677 27.8793 10.8749 27.7702C12.1129 27.4975 13.3891 26.9413 14.3653 26.2486C16.0505 25.0379 17.3321 23.1673 17.8229 21.1822C18.1011 20.0587 18.1011 20.0751 18.0793 15.3903C18.0738 12.9853 18.0738 11.0165 18.0902 11.0165C18.1065 11.0165 18.3847 11.1474 18.7064 11.311C20.3753 12.1345 21.935 12.489 23.9365 12.489H25V9.57124C25 7.28069 24.9836 6.64806 24.9346 6.62625C24.8964 6.61534 24.4328 6.58261 23.9093 6.54989C22.8458 6.48445 22.3168 6.38083 21.6405 6.09178C20.697 5.69366 19.6608 4.8538 19.1155 4.04665C18.4556 3.07044 18.1393 2.06696 18.0902 0.801701L18.0574 7.62939e-06H15.0634H12.0747V9.69667ZM16.5141 2.12695C17.0049 4.81017 19.0009 7.068 21.6187 7.89696C21.9023 7.98421 22.3222 8.08784 22.5458 8.12056C22.7694 8.15873 23.0367 8.19691 23.1348 8.21327L23.3094 8.24054V9.52761V10.8147L22.8894 10.7765C21.4278 10.6456 19.6499 10.0184 18.4119 9.18948C18.1665 9.02587 17.6266 8.63321 17.2176 8.31689C16.814 8.00058 16.4541 7.74425 16.4268 7.74425C16.3886 7.74425 16.3777 9.78939 16.3886 13.727C16.405 19.2243 16.3941 19.7533 16.3068 20.2059C15.8596 22.5347 14.4307 24.4216 12.3202 25.4851C11.3058 25.9923 10.2368 26.2377 9.04795 26.2377C7.08461 26.2377 5.36125 25.5615 3.94329 24.2253C2.77074 23.1237 1.99632 21.6621 1.73454 20.0805C1.63092 19.4424 1.65819 18.1226 1.78908 17.5336C2.07267 16.2738 2.66712 15.0849 3.45791 14.2123C4.90314 12.6199 6.6156 11.8018 8.7589 11.6873L9.40244 11.6546V12.9362V14.2178L8.84616 14.2505C6.80648 14.3705 5.17582 15.603 4.53774 17.5064C4.36868 18.0081 4.36322 18.0572 4.35777 18.9516C4.35777 19.7751 4.37413 19.9224 4.48866 20.2877C4.88678 21.5694 5.71028 22.5619 6.85556 23.1564C8.14809 23.8272 9.75147 23.8545 11.0876 23.2273C12.3256 22.6492 13.2418 21.553 13.6345 20.1787C13.7327 19.8405 13.7381 19.4043 13.7545 10.7274L13.7654 1.63612H15.0961H16.4213L16.5141 2.12695Z" fill="white"/>
</svg>
